{
    "asset" : {
        "generator" : "Khronos glTF Blender I/O v1.5.17",
        "version" : "2.0"
    },
    "scene" : 0,
    "scenes" : [
        {
            "name" : "Scene",
            "nodes" : [
                0
            ]
        }
    ],
    "nodes" : [
        {
            "mesh" : 0,
            "name" : "heart_ts01",
            "rotation" : [
                0.5983592867851257,
                -0.37678399682044983,
                0.3767840564250946,
                0.598359227180481
            ],
            "scale" : [
                5.6956868171691895,
                5.6956868171691895,
                5.695686340332031
            ]
        }
    ],
    "materials" : [
        {
            "doubleSided" : true,
            "name" : "Shader_1",
            "pbrMetallicRoughness" : {
                "baseColorFactor" : [
                    0.8000000715255737,
                    0.26646003127098083,
                    0.3708907961845398,
                    1
                ],
                "metallicFactor" : 0.4204545319080353,
                "roughnessFactor" : 0
            }
        }
    ],
    "meshes" : [
        {
            "name" : "heart_ts01",
            "primitives" : [
                {
                    "attributes" : {
                        "POSITION" : 0,
                        "NORMAL" : 1,
                        "TEXCOORD_0" : 2
                    },
                    "indices" : 3,
                    "material" : 0
                }
            ]
        }
    ],
    "accessors" : [
        {
            "bufferView" : 0,
            "componentType" : 5126,
            "count" : 898,
            "max" : [
                0.45778289437294006,
                1.0830107927322388,
                1.1790224313735962
            ],
            "min" : [
                -0.46061408519744873,
                -1.0822252035140991,
                -0.714717447757721
            ],
            "type" : "VEC3"
        },
        {
            "bufferView" : 1,
            "componentType" : 5126,
            "count" : 898,
            "type" : "VEC3"
        },
        {
            "bufferView" : 2,
            "componentType" : 5126,
            "count" : 898,
            "type" : "VEC2"
        },
        {
            "bufferView" : 3,
            "componentType" : 5123,
            "count" : 5376,
            "type" : "SCALAR"
        }
    ],
    "bufferViews" : [
        {
            "buffer" : 0,
            "byteLength" : 10776,
            "byteOffset" : 0
        },
        {
            "buffer" : 0,
            "byteLength" : 10776,
            "byteOffset" : 10776
        },
        {
            "buffer" : 0,
            "byteLength" : 7184,
            "byteOffset" : 21552
        },
        {
            "buffer" : 0,
            "byteLength" : 10752,
            "byteOffset" : 28736
        }
    ],
    "buffers" : [
        {
            "byteLength" : 39488,
            "uri" : "data:application/octet-stream;base64,"
        }
    ]
}
