{
    "asset" : {
        "generator" : "Khronos glTF Blender I/O v1.5.17",
        "version" : "2.0"
    },
    "scene" : 0,
    "scenes" : [
        {
            "name" : "Scene",
            "nodes" : [
                0
            ]
        }
    ],
    "nodes" : [
        {
            "mesh" : 0,
            "name" : "star.010",
            "rotation" : [
                -0.35501548647880554,
                -0.5822951197624207,
                0.6400783658027649,
                -0.35383060574531555
            ],
            "scale" : [
                0.05258556082844734,
                0.05258556082844734,
                0.05258556082844734
            ]
        }
    ],
    "materials" : [
        {
            "doubleSided" : true,
            "name" : "Material1",
            "pbrMetallicRoughness" : {
                "baseColorFactor" : [
                    0.6936391592025757,
                    0.8000000715255737,
                    0.13271722197532654,
                    1
                ],
                "metallicFactor" : 0.41363635659217834,
                "roughnessFactor" : 0
            }
        }
    ],
    "meshes" : [
        {
            "name" : "Cube.013",
            "primitives" : [
                {
                    "attributes" : {
                        "POSITION" : 0,
                        "NORMAL" : 1,
                        "TEXCOORD_0" : 2
                    },
                    "indices" : 3,
                    "material" : 0
                }
            ]
        }
    ],
    "accessors" : [
        {
            "bufferView" : 0,
            "componentType" : 5126,
            "count" : 5726,
            "max" : [
                14.499425888061523,
                5.986823081970215,
                12.468174934387207
            ],
            "min" : [
                -14.495875358581543,
                -5.980855464935303,
                -15.243511199951172
            ],
            "type" : "VEC3"
        },
        {
            "bufferView" : 1,
            "componentType" : 5126,
            "count" : 5726,
            "type" : "VEC3"
        },
        {
            "bufferView" : 2,
            "componentType" : 5126,
            "count" : 5726,
            "type" : "VEC2"
        },
        {
            "bufferView" : 3,
            "componentType" : 5123,
            "count" : 28800,
            "type" : "SCALAR"
        }
    ],
    "bufferViews" : [
        {
            "buffer" : 0,
            "byteLength" : 68712,
            "byteOffset" : 0
        },
        {
            "buffer" : 0,
            "byteLength" : 68712,
            "byteOffset" : 68712
        },
        {
            "buffer" : 0,
            "byteLength" : 45808,
            "byteOffset" : 137424
        },
        {
            "buffer" : 0,
            "byteLength" : 57600,
            "byteOffset" : 183232
        }
    ],
    "buffers" : [
        {
            "byteLength" : 240832,
            "uri" : "data:application/octet-stream;base64,"
        }
    ]
}
