{
    "asset" : {
        "generator" : "Khronos glTF Blender I/O v1.5.17",
        "version" : "2.0"
    },
    "scene" : 0,
    "scenes" : [
        {
            "name" : "Scene",
            "nodes" : [
                0
            ]
        }
    ],
    "nodes" : [
        {
            "mesh" : 0,
            "name" : "stemflower.003",
            "rotation" : [
                0.6756990551948547,
                0.6524484753608704,
                -0.3044801950454712,
                0.1582200527191162
            ],
            "scale" : [
                0.1653570532798767,
                0.1653570830821991,
                0.1653570830821991
            ]
        }
    ],
    "materials" : [
        {
            "doubleSided" : true,
            "name" : "stemflower material.002",
            "pbrMetallicRoughness" : {
                "baseColorTexture" : {
                    "index" : 0
                },
                "metallicFactor" : 0.26818183064460754,
                "roughnessFactor" : 0
            }
        }
    ],
    "meshes" : [
        {
            "name" : "Torus.004",
            "primitives" : [
                {
                    "attributes" : {
                        "POSITION" : 0,
                        "NORMAL" : 1,
                        "TEXCOORD_0" : 2
                    },
                    "indices" : 3,
                    "material" : 0
                }
            ]
        }
    ],
    "textures" : [
        {
            "sampler" : 0,
            "source" : 0
        }
    ],
    "images" : [
        {
            "bufferView" : 4,
            "mimeType" : "image/jpeg",
            "name" : "texture"
        }
    ],
    "accessors" : [
        {
            "bufferView" : 0,
            "componentType" : 5126,
            "count" : 15964,
            "max" : [
                57.56431579589844,
                55.60254669189453,
                265.47955322265625
            ],
            "min" : [
                -50.034236907958984,
                -54.92490005493164,
                -38.798179626464844
            ],
            "type" : "VEC3"
        },
        {
            "bufferView" : 1,
            "componentType" : 5126,
            "count" : 15964,
            "type" : "VEC3"
        },
        {
            "bufferView" : 2,
            "componentType" : 5126,
            "count" : 15964,
            "type" : "VEC2"
        },
        {
            "bufferView" : 3,
            "componentType" : 5123,
            "count" : 89592,
            "type" : "SCALAR"
        }
    ],
    "bufferViews" : [
        {
            "buffer" : 0,
            "byteLength" : 191568,
            "byteOffset" : 0
        },
        {
            "buffer" : 0,
            "byteLength" : 191568,
            "byteOffset" : 191568
        },
        {
            "buffer" : 0,
            "byteLength" : 127712,
            "byteOffset" : 383136
        },
        {
            "buffer" : 0,
            "byteLength" : 179184,
            "byteOffset" : 510848
        },
        {
            "buffer" : 0,
            "byteLength" : 145384,
            "byteOffset" : 690032
        }
    ],
    "samplers" : [
        {
            "magFilter" : 9729,
            "minFilter" : 9987
        }
    ],
    "buffers" : [
        {
            "byteLength" : 835416,
            "uri" : "data:application/octet-stream;base64,"
        }
    ]
}
