{
    "asset" : {
        "generator" : "Khronos glTF Blender I/O v1.5.17",
        "version" : "2.0"
    },
    "scene" : 0,
    "scenes" : [
        {
            "name" : "Scene",
            "nodes" : [
                0
            ]
        }
    ],
    "nodes" : [
        {
            "mesh" : 0,
            "name" : "Text",
            "rotation" : [
                -0.31425023078918457,
                -0.6410995721817017,
                -0.6120748519897461,
                0.34000372886657715
            ],
            "scale" : [
                -11.100959777832031,
                -11.100959777832031,
                -11.100959777832031
            ]
        }
    ],
    "materials" : [
        {
            "doubleSided" : true,
            "name" : "willisau_modica_armchair_cantilever_mat1_mtl_1",
            "pbrMetallicRoughness" : {
                "baseColorFactor" : [
                    0.22295986115932465,
                    0.38090386986732483,
                    0.8000000715255737,
                    1
                ],
                "metallicFactor" : 0,
                "roughnessFactor" : 0
            }
        }
    ],
    "meshes" : [
        {
            "name" : ":)",
            "primitives" : [
                {
                    "attributes" : {
                        "POSITION" : 0,
                        "NORMAL" : 1,
                        "TEXCOORD_0" : 2
                    },
                    "indices" : 3,
                    "material" : 0
                }
            ]
        }
    ],
    "accessors" : [
        {
            "bufferView" : 0,
            "componentType" : 5126,
            "count" : 2161,
            "max" : [
                0.3626088798046112,
                0.08000000566244125,
                0.5370686054229736
            ],
            "min" : [
                -0.22662872076034546,
                -0.08000000566244125,
                -0.5469314455986023
            ],
            "type" : "VEC3"
        },
        {
            "bufferView" : 1,
            "componentType" : 5126,
            "count" : 2161,
            "type" : "VEC3"
        },
        {
            "bufferView" : 2,
            "componentType" : 5126,
            "count" : 2161,
            "type" : "VEC2"
        },
        {
            "bufferView" : 3,
            "componentType" : 5123,
            "count" : 9600,
            "type" : "SCALAR"
        }
    ],
    "bufferViews" : [
        {
            "buffer" : 0,
            "byteLength" : 25932,
            "byteOffset" : 0
        },
        {
            "buffer" : 0,
            "byteLength" : 25932,
            "byteOffset" : 25932
        },
        {
            "buffer" : 0,
            "byteLength" : 17288,
            "byteOffset" : 51864
        },
        {
            "buffer" : 0,
            "byteLength" : 19200,
            "byteOffset" : 69152
        }
    ],
    "buffers" : [
        {
            "byteLength" : 88352,
            "uri" : "data:application/octet-stream;base64,"
        }
    ]
}
