{
    "asset" : {
        "generator" : "Khronos glTF Blender I/O v1.5.17",
        "version" : "2.0"
    },
    "extensionsUsed" : [
        "KHR_materials_clearcoat"
    ],
    "scene" : 0,
    "scenes" : [
        {
            "name" : "Scene",
            "nodes" : [
                0
            ]
        }
    ],
    "nodes" : [
        {
            "mesh" : 0,
            "name" : "Woman_Body.003",
            "rotation" : [
                -0.010435644537210464,
                -0.01531821396201849,
                0.7120741009712219,
                0.7018596529960632
            ],
            "scale" : [
                0.17811055481433868,
                0.17811059951782227,
                0.17811058461666107
            ]
        }
    ],
    "materials" : [
        {
            "doubleSided" : true,
            "extensions" : {
                "KHR_materials_clearcoat" : {
                    "clearcoatFactor" : 1,
                    "clearcoatRoughnessFactor" : 0.1727272868156433
                }
            },
            "name" : "Material.002",
            "pbrMetallicRoughness" : {
                "baseColorTexture" : {
                    "index" : 0
                },
                "metallicFactor" : 0.16363637149333954,
                "roughnessFactor" : 0
            }
        }
    ],
    "meshes" : [
        {
            "name" : "Mesh.004",
            "primitives" : [
                {
                    "attributes" : {
                        "POSITION" : 0,
                        "NORMAL" : 1,
                        "TEXCOORD_0" : 2
                    },
                    "indices" : 3,
                    "material" : 0
                }
            ]
        }
    ],
    "textures" : [
        {
            "sampler" : 0,
            "source" : 0
        }
    ],
    "images" : [
        {
            "bufferView" : 4,
            "mimeType" : "image/jpeg",
            "name" : "texture17"
        }
    ],
    "accessors" : [
        {
            "bufferView" : 0,
            "componentType" : 5126,
            "count" : 65174,
            "max" : [
                28.90497398376465,
                10.384209632873535,
                94.3723373413086
            ],
            "min" : [
                -28.90482521057129,
                -14.768289566040039,
                -75.06974029541016
            ],
            "type" : "VEC3"
        },
        {
            "bufferView" : 1,
            "componentType" : 5126,
            "count" : 65174,
            "type" : "VEC3"
        },
        {
            "bufferView" : 2,
            "componentType" : 5126,
            "count" : 65174,
            "type" : "VEC2"
        },
        {
            "bufferView" : 3,
            "componentType" : 5123,
            "count" : 377472,
            "type" : "SCALAR"
        }
    ],
    "bufferViews" : [
        {
            "buffer" : 0,
            "byteLength" : 782088,
            "byteOffset" : 0
        },
        {
            "buffer" : 0,
            "byteLength" : 782088,
            "byteOffset" : 782088
        },
        {
            "buffer" : 0,
            "byteLength" : 521392,
            "byteOffset" : 1564176
        },
        {
            "buffer" : 0,
            "byteLength" : 754944,
            "byteOffset" : 2085568
        },
        {
            "buffer" : 0,
            "byteLength" : 71093,
            "byteOffset" : 2840512
        }
    ],
    "samplers" : [
        {
            "magFilter" : 9729,
            "minFilter" : 9987
        }
    ],
    "buffers" : [
        {
            "byteLength" : 2911608,
            "uri" : "data:application/octet-stream;base64,"
        }
    ]
}
